<mxfile host="app.diagrams.net" modified="2021-03-10T02:47:30.396Z" agent="5.0 (Windows NT 10.0; Win64; x64) AppleWebKit/537.36 (KHTML, like Gecko) Chrome/88.0.4324.190 Safari/537.36" etag="1cM_76F-_xvIc5mTQxnB" version="14.4.4" type="github">
  <diagram id="562_ZwYCnt7Hf36wuX_N" name="第 1 页">
    <mxGraphModel dx="1422" dy="746" grid="1" gridSize="10" guides="1" tooltips="1" connect="1" arrows="1" fold="1" page="1" pageScale="1" pageWidth="827" pageHeight="1169" math="0" shadow="0">
      <root>
        <mxCell id="0" />
        <mxCell id="1" parent="0" />
        <mxCell id="XVNDIklzSpNa81oofUdQ-9" value="" style="edgeStyle=orthogonalEdgeStyle;rounded=0;orthogonalLoop=1;jettySize=auto;html=1;fontSize=10.5;" edge="1" parent="1" source="XVNDIklzSpNa81oofUdQ-1" target="XVNDIklzSpNa81oofUdQ-3">
          <mxGeometry relative="1" as="geometry" />
        </mxCell>
        <mxCell id="XVNDIklzSpNa81oofUdQ-17" style="edgeStyle=orthogonalEdgeStyle;rounded=0;orthogonalLoop=1;jettySize=auto;html=1;exitX=0;exitY=0.5;exitDx=0;exitDy=0;entryX=0.5;entryY=0;entryDx=0;entryDy=0;fontSize=10.5;" edge="1" parent="1" source="XVNDIklzSpNa81oofUdQ-1" target="XVNDIklzSpNa81oofUdQ-18">
          <mxGeometry relative="1" as="geometry">
            <mxPoint x="420" y="100" as="targetPoint" />
          </mxGeometry>
        </mxCell>
        <mxCell id="XVNDIklzSpNa81oofUdQ-1" value="图像样本" style="whiteSpace=wrap;html=1;aspect=fixed;fontSize=10.5;" vertex="1" parent="1">
          <mxGeometry x="550" y="60" width="80" height="80" as="geometry" />
        </mxCell>
        <mxCell id="XVNDIklzSpNa81oofUdQ-2" value="5.提取图像特征" style="text;html=1;align=center;verticalAlign=middle;resizable=0;points=[];autosize=1;fontSize=10.5;" vertex="1" parent="1">
          <mxGeometry x="334" y="130" width="100" height="20" as="geometry" />
        </mxCell>
        <mxCell id="XVNDIklzSpNa81oofUdQ-10" value="" style="edgeStyle=orthogonalEdgeStyle;rounded=0;orthogonalLoop=1;jettySize=auto;html=1;fontSize=10.5;" edge="1" parent="1" source="XVNDIklzSpNa81oofUdQ-3" target="XVNDIklzSpNa81oofUdQ-6">
          <mxGeometry relative="1" as="geometry" />
        </mxCell>
        <mxCell id="XVNDIklzSpNa81oofUdQ-3" value="多层融合TPCANet" style="rounded=1;whiteSpace=wrap;html=1;fontSize=10.5;fillColor=#ffe6cc;strokeColor=#d79b00;" vertex="1" parent="1">
          <mxGeometry x="530" y="180" width="120" height="60" as="geometry" />
        </mxCell>
        <mxCell id="XVNDIklzSpNa81oofUdQ-11" value="" style="edgeStyle=orthogonalEdgeStyle;rounded=0;orthogonalLoop=1;jettySize=auto;html=1;fontSize=10.5;" edge="1" parent="1" source="XVNDIklzSpNa81oofUdQ-6" target="XVNDIklzSpNa81oofUdQ-7">
          <mxGeometry relative="1" as="geometry" />
        </mxCell>
        <mxCell id="XVNDIklzSpNa81oofUdQ-6" value="BLSTM" style="rounded=1;whiteSpace=wrap;html=1;fontSize=10.5;fillColor=#dae8fc;strokeColor=#6c8ebf;" vertex="1" parent="1">
          <mxGeometry x="530" y="270" width="120" height="60" as="geometry" />
        </mxCell>
        <mxCell id="XVNDIklzSpNa81oofUdQ-12" style="edgeStyle=orthogonalEdgeStyle;rounded=0;orthogonalLoop=1;jettySize=auto;html=1;exitX=1;exitY=0.5;exitDx=0;exitDy=0;entryX=1;entryY=0.5;entryDx=0;entryDy=0;fontSize=10.5;" edge="1" parent="1" source="XVNDIklzSpNa81oofUdQ-7" target="XVNDIklzSpNa81oofUdQ-1">
          <mxGeometry relative="1" as="geometry">
            <Array as="points">
              <mxPoint x="710" y="390" />
              <mxPoint x="710" y="100" />
            </Array>
          </mxGeometry>
        </mxCell>
        <mxCell id="XVNDIklzSpNa81oofUdQ-7" value="全连接" style="shape=parallelogram;perimeter=parallelogramPerimeter;whiteSpace=wrap;html=1;fixedSize=1;fontSize=10.5;fillColor=#f5f5f5;strokeColor=#666666;fontColor=#333333;" vertex="1" parent="1">
          <mxGeometry x="530" y="360" width="120" height="60" as="geometry" />
        </mxCell>
        <mxCell id="XVNDIklzSpNa81oofUdQ-13" value="&lt;span style=&quot;font-size: 10.5px;&quot;&gt;1. 获得特征映射&lt;/span&gt;" style="text;html=1;align=center;verticalAlign=middle;resizable=0;points=[];autosize=1;fontSize=10.5;" vertex="1" parent="1">
          <mxGeometry x="495" y="150" width="100" height="20" as="geometry" />
        </mxCell>
        <mxCell id="XVNDIklzSpNa81oofUdQ-14" value="&lt;span style=&quot;font-size: 10.5px;&quot;&gt;2. 提取图像特征&lt;/span&gt;" style="text;html=1;align=center;verticalAlign=middle;resizable=0;points=[];autosize=1;fontSize=10.5;" vertex="1" parent="1">
          <mxGeometry x="495" y="245" width="100" height="20" as="geometry" />
        </mxCell>
        <mxCell id="XVNDIklzSpNa81oofUdQ-15" value="&lt;span style=&quot;font-size: 10.5px;&quot;&gt;3. 预测文本框&lt;/span&gt;" style="text;html=1;align=center;verticalAlign=middle;resizable=0;points=[];autosize=1;fontSize=10.5;" vertex="1" parent="1">
          <mxGeometry x="505" y="330" width="90" height="20" as="geometry" />
        </mxCell>
        <mxCell id="XVNDIklzSpNa81oofUdQ-16" value="4. 分割文本框" style="text;html=1;align=center;verticalAlign=middle;resizable=0;points=[];autosize=1;fontSize=10.5;" vertex="1" parent="1">
          <mxGeometry x="710" y="240" width="90" height="20" as="geometry" />
        </mxCell>
        <mxCell id="XVNDIklzSpNa81oofUdQ-21" value="" style="edgeStyle=orthogonalEdgeStyle;rounded=0;orthogonalLoop=1;jettySize=auto;html=1;fontSize=10.5;" edge="1" parent="1" source="XVNDIklzSpNa81oofUdQ-18" target="XVNDIklzSpNa81oofUdQ-19">
          <mxGeometry relative="1" as="geometry" />
        </mxCell>
        <mxCell id="XVNDIklzSpNa81oofUdQ-18" value="BLSTM" style="rounded=1;whiteSpace=wrap;html=1;fontSize=10.5;fillColor=#d5e8d4;strokeColor=#82b366;" vertex="1" parent="1">
          <mxGeometry x="374" y="180" width="120" height="60" as="geometry" />
        </mxCell>
        <mxCell id="XVNDIklzSpNa81oofUdQ-24" value="" style="edgeStyle=orthogonalEdgeStyle;rounded=0;orthogonalLoop=1;jettySize=auto;html=1;fontSize=10.5;" edge="1" parent="1" source="XVNDIklzSpNa81oofUdQ-19" target="XVNDIklzSpNa81oofUdQ-23">
          <mxGeometry relative="1" as="geometry" />
        </mxCell>
        <mxCell id="XVNDIklzSpNa81oofUdQ-19" value="CTC" style="rounded=1;whiteSpace=wrap;html=1;fontSize=10.5;fillColor=#e1d5e7;strokeColor=#9673a6;" vertex="1" parent="1">
          <mxGeometry x="374" y="270" width="120" height="60" as="geometry" />
        </mxCell>
        <mxCell id="XVNDIklzSpNa81oofUdQ-22" value="6.转录" style="text;html=1;align=center;verticalAlign=middle;resizable=0;points=[];autosize=1;fontSize=10.5;" vertex="1" parent="1">
          <mxGeometry x="359" y="245" width="50" height="20" as="geometry" />
        </mxCell>
        <mxCell id="XVNDIklzSpNa81oofUdQ-23" value="&quot;state&quot;" style="text;html=1;align=center;verticalAlign=middle;resizable=0;points=[];autosize=1;fontSize=10.5;" vertex="1" parent="1">
          <mxGeometry x="409" y="360" width="50" height="20" as="geometry" />
        </mxCell>
        <mxCell id="XVNDIklzSpNa81oofUdQ-25" value="7.输出字符序列" style="text;html=1;align=center;verticalAlign=middle;resizable=0;points=[];autosize=1;fontSize=10.5;" vertex="1" parent="1">
          <mxGeometry x="334" y="330" width="100" height="20" as="geometry" />
        </mxCell>
        <mxCell id="XVNDIklzSpNa81oofUdQ-26" value="" style="endArrow=classic;html=1;fontSize=10.5;" edge="1" parent="1" target="XVNDIklzSpNa81oofUdQ-1">
          <mxGeometry width="50" height="50" relative="1" as="geometry">
            <mxPoint x="590" y="20" as="sourcePoint" />
            <mxPoint x="440" y="390" as="targetPoint" />
          </mxGeometry>
        </mxCell>
        <mxCell id="XVNDIklzSpNa81oofUdQ-27" value="输入" style="text;html=1;align=center;verticalAlign=middle;resizable=0;points=[];autosize=1;fontSize=10.5;" vertex="1" parent="1">
          <mxGeometry x="590" y="30" width="40" height="20" as="geometry" />
        </mxCell>
      </root>
    </mxGraphModel>
  </diagram>
</mxfile>
